<?xml version="1.0" standalone="no"?>
<!DOCTYPE svg PUBLIC "-//W3C//DTD SVG 20010904//EN"
 "http://www.w3.org/TR/2001/REC-SVG-20010904/DTD/svg10.dtd">
<svg version="1.0" xmlns="http://www.w3.org/2000/svg"
 width="194.000000pt" height="37.000000pt" viewBox="0 0 194.000000 37.000000"
 preserveAspectRatio="xMidYMid meet">

<g transform="translate(0.000000,37.000000) scale(0.100000,-0.100000)"
fill="#000000" stroke="none">
<path d="M560 205 c0 -85 3 -105 14 -105 11 0 16 15 18 51 3 55 21 78 52 66
12 -5 16 -20 16 -62 0 -42 3 -55 15 -55 12 0 15 14 15 64 0 75 -13 91 -65 83
-34 -6 -35 -5 -35 29 0 24 -5 34 -15 34 -12 0 -15 -18 -15 -105z"/>
<path d="M785 301 c-9 -16 3 -31 26 -31 14 0 19 6 17 17 -4 20 -33 29 -43 14z"/>
<path d="M1290 291 c0 -15 6 -21 21 -21 25 0 22 33 -4 38 -12 2 -17 -3 -17
-17z"/>
<path d="M70 195 c0 -78 3 -95 15 -95 11 0 15 11 15 40 l0 40 40 0 c29 0 40 4
40 15 0 11 -11 15 -40 15 -36 0 -40 3 -40 25 0 23 4 25 45 25 33 0 45 4 45 15
0 12 -13 15 -60 15 l-60 0 0 -95z"/>
<path d="M1600 270 c0 -13 -7 -20 -20 -20 -11 0 -20 -7 -20 -15 0 -8 9 -15 20
-15 17 0 20 -7 20 -43 0 -62 39 -92 94 -71 25 9 8 32 -21 26 -30 -6 -43 10
-43 56 0 30 2 32 35 32 24 0 35 5 35 15 0 10 -11 15 -35 15 -28 0 -35 4 -35
20 0 11 -7 20 -15 20 -8 0 -15 -9 -15 -20z"/>
<path d="M248 239 c-30 -17 -21 -30 16 -23 40 7 66 -3 45 -17 -8 -5 -23 -9
-35 -9 -29 0 -57 -34 -49 -59 8 -25 51 -38 76 -22 23 14 32 14 24 1 -3 -5 1
-10 9 -10 23 0 23 112 0 134 -17 18 -60 20 -86 5z m72 -84 c0 -16 -43 -31 -60
-20 -8 5 -8 11 1 21 15 19 59 18 59 -1z"/>
<path d="M405 230 c-18 -19 -18 -22 -2 -38 10 -9 31 -21 47 -27 16 -5 30 -14
30 -20 0 -10 -41 -12 -70 -4 -9 2 -15 -2 -15 -11 0 -22 68 -37 100 -22 20 9
26 18 23 39 -2 21 -11 29 -45 41 -55 18 -57 36 -3 29 29 -4 40 -1 40 8 0 30
-79 34 -105 5z"/>
<path d="M730 235 c0 -10 10 -15 30 -15 l30 0 0 -60 c0 -47 3 -60 15 -60 12 0
15 15 15 75 l0 75 -45 0 c-33 0 -45 -4 -45 -15z"/>
<path d="M910 230 c-30 -30 -27 -83 6 -109 34 -26 54 -26 88 0 52 41 23 129
-44 129 -17 0 -39 -9 -50 -20z m81 -31 c16 -31 -4 -71 -33 -67 -29 4 -47 50
-28 72 18 22 47 20 61 -5z"/>
<path d="M1060 175 c0 -68 2 -75 20 -75 18 0 20 7 20 54 0 46 3 56 20 61 32
10 40 -3 40 -61 0 -42 3 -54 15 -54 13 0 15 12 13 66 -4 79 -18 96 -68 77 -16
-6 -30 -7 -30 -2 0 5 -7 9 -15 9 -12 0 -15 -15 -15 -75z"/>
<path d="M1230 235 c0 -10 10 -15 30 -15 l30 0 0 -60 c0 -53 2 -60 20 -60 18
0 20 7 20 75 l0 75 -50 0 c-38 0 -50 -4 -50 -15z"/>
<path d="M1415 230 c-18 -19 -18 -22 -2 -38 10 -9 31 -21 47 -27 16 -5 30 -14
30 -20 0 -10 -41 -12 -70 -4 -9 2 -15 -2 -15 -11 0 -22 68 -37 100 -22 20 9
26 18 23 39 -2 21 -11 29 -45 41 -55 18 -57 36 -3 29 29 -4 40 -1 40 8 0 30
-79 34 -105 5z"/>
<path d="M1758 239 c-31 -18 -20 -30 21 -23 54 9 63 -12 11 -26 -50 -13 -69
-43 -44 -71 19 -21 45 -24 75 -9 13 7 19 7 19 0 0 -5 7 -10 16 -10 14 0 16 9
11 62 -4 43 -11 66 -23 75 -21 15 -62 16 -86 2z m72 -83 c0 -14 -21 -26 -46
-26 -17 0 -19 26 -1 33 24 10 47 7 47 -7z"/>
</g>
</svg>
